# Blender v3.1.2 OBJ File: 'GYM.blend'
# www.blender.org
mtllib GYM.mtl
o 円柱
v -28.339994 0.187103 -49.086308
v -28.339994 22.729244 -49.086308
v 28.339994 0.187103 -49.086308
v 28.339994 22.729244 -49.086308
v 56.679989 0.187103 0.000002
v 56.679989 22.729244 0.000002
v 28.339991 0.187103 49.086311
v 28.339991 22.729244 49.086311
v -28.339996 0.187103 49.086304
v -28.339996 22.729244 49.086304
v -56.679985 0.187103 0.000006
v -56.679985 22.729244 0.000006
v 26.058401 22.729244 -45.134468
v -52.116798 22.729244 0.000006
v 26.058395 22.729244 45.134476
v -26.058403 22.729244 45.134468
v 52.116802 22.729244 0.000002
v -26.058399 22.729244 -45.134472
v -26.058399 0.187103 -45.134472
v 52.116802 0.187103 0.000002
v -26.058403 0.187103 45.134468
v -52.116798 0.187103 0.000006
v 26.058401 0.187103 -45.134468
v 26.058395 0.187103 45.134476
v -28.339994 -2.335228 -49.086308
v 28.339994 -2.335228 -49.086308
v 56.679989 -2.335228 0.000002
v 28.339991 -2.335228 49.086311
v -28.339996 -2.335228 49.086304
v -56.679985 -2.335228 0.000006
v -26.058399 -2.335228 -45.134472
v 52.116802 -2.335228 0.000002
v -26.058403 -2.335228 45.134468
v 26.058395 -2.335228 45.134476
v -52.116798 -2.335228 0.000006
v 26.058401 -2.335228 -45.134468
v -28.339994 25.225332 -49.086308
v 28.339994 25.225332 -49.086308
v 56.679989 25.225332 0.000002
v 28.339991 25.225332 49.086311
v -28.339996 25.225332 49.086304
v -56.679985 25.225332 0.000006
v 26.058395 25.225332 45.134476
v -26.058403 25.225332 45.134468
v 26.058401 25.225332 -45.134468
v 52.116802 25.225332 0.000002
v -26.058399 25.225332 -45.134472
v -52.116798 25.225332 0.000006
vt 1.000000 0.500000
vt 1.000000 1.000000
vt 0.833333 1.000000
vt 0.833333 0.500000
vt 0.666667 1.000000
vt 0.666667 0.500000
vt 0.500000 1.000000
vt 0.500000 0.500000
vt 0.333333 1.000000
vt 0.333333 0.500000
vt 0.833333 1.000000
vt 0.666667 1.000000
vt 0.333333 0.898387
vt 0.166667 0.898387
vt 0.166667 0.898387
vt 0.333333 0.898387
vt 0.166667 1.000000
vt 0.166667 0.500000
vt -0.000000 1.000000
vt -0.000000 0.500000
vt 0.833333 0.601613
vt 1.000000 0.601613
vt 1.000000 0.601613
vt 0.833333 0.601613
vt 0.666667 0.601613
vt 0.666667 0.601613
vt 0.833333 0.898387
vt 1.000000 0.898387
vt 0.666667 0.898387
vt 0.500000 0.898387
vt 0.500000 0.601613
vt 0.333333 0.601613
vt 0.166667 0.601613
vt -0.000000 0.601613
vt -0.000000 0.898387
vt 0.750000 0.470678
vt 0.750000 0.490000
vt 0.957846 0.370000
vt 0.957846 0.130000
vt 0.941113 0.139661
vt 0.941113 0.360339
vt 0.750000 0.010000
vt 0.542154 0.130000
vt 0.542154 0.370000
vt 0.558887 0.360339
vt 0.558887 0.139661
vt 0.750000 0.029322
vt 0.833333 0.500000
vt 1.000000 0.500000
vt 0.500000 0.500000
vt 0.666667 0.500000
vt 0.500000 0.601613
vt 0.333333 0.601613
vt 0.166667 0.601613
vt 0.166667 0.500000
vt 0.333333 0.500000
vt -0.000000 0.500000
vt -0.000000 0.601613
vt 0.000000 0.000000
vt 0.000000 0.000000
vt 0.000000 0.000000
vt 0.000000 0.000000
vt 0.000000 0.000000
vt 0.000000 0.000000
vt 0.000000 0.000000
vt 0.000000 0.000000
vt 0.000000 0.000000
vt 0.000000 0.000000
vt 0.000000 0.000000
vt 0.000000 0.000000
vt 0.441113 0.139661
vt 0.457846 0.130000
vt 0.457846 0.370000
vt 0.250000 0.490000
vt 0.250000 0.470678
vt 0.441113 0.360339
vt 0.042154 0.370000
vt 0.042154 0.130000
vt 0.250000 0.010000
vt 0.250000 0.029322
vt 0.058887 0.139661
vt 0.058887 0.360339
vt -0.000000 0.898387
vt 0.500000 0.898387
vt 0.500000 1.000000
vt 0.333333 1.000000
vt 0.833333 0.898387
vt 1.000000 0.898387
vt 0.166667 1.000000
vt -0.000000 1.000000
vt 0.666667 0.898387
vt 1.000000 1.000000
vt 0.000000 0.000000
vt 0.000000 0.000000
vt 0.000000 0.000000
vt 0.000000 0.000000
vt 0.000000 0.000000
vt 0.000000 0.000000
vn 0.0000 0.0000 -1.0000
vn 0.8660 0.0000 -0.5000
vn 0.8660 0.0000 0.5000
vn -0.0000 0.0000 1.0000
vn -0.8660 0.0000 0.5000
vn -0.8660 0.0000 -0.5000
vn 0.0000 -1.0000 0.0000
vn 0.0000 1.0000 -0.0000
vn 0.0080 -1.0000 -0.0046
usemtl None
s off
f 1/1/1 2/2/1 4/3/1 3/4/1
f 3/4/2 4/3/2 6/5/2 5/6/2
f 5/6/3 6/5/3 8/7/3 7/8/3
f 7/8/4 8/7/4 10/9/4 9/10/4
f 6/5/2 4/3/2 38/11/2 39/12/2
f 16/13/2 14/14/2 48/15/2 44/16/2
f 9/10/5 10/9/5 12/17/5 11/18/5
f 11/18/6 12/17/6 2/19/6 1/20/6
f 23/21/4 19/22/4 31/23/4 36/24/4
f 20/25/5 23/21/5 36/24/5 32/26/5
f 23/21/4 13/27/4 18/28/4 19/22/4
f 17/29/5 13/27/5 23/21/5 20/25/5
f 15/30/6 17/29/6 20/25/6 24/31/6
f 16/13/1 15/30/1 24/31/1 21/32/1
f 22/33/2 14/14/2 16/13/2 21/32/2
f 19/34/3 18/35/3 14/14/3 22/33/3
f 31/36/7 25/37/7 26/38/7 27/39/7 32/40/7 36/41/7
f 32/40/7 27/39/7 28/42/7 29/43/7 30/44/7 25/37/7 31/36/7 35/45/7 33/46/7 34/47/7
f 1/1/1 3/4/1 26/48/1 25/49/1
f 5/6/3 7/8/3 28/50/3 27/51/3
f 24/31/6 20/25/6 32/26/6 34/52/6
f 22/33/2 21/32/2 33/53/2 35/54/2
f 9/10/5 11/18/5 30/55/5 29/56/5
f 21/32/1 24/31/1 34/52/1 33/53/1
f 11/18/6 1/20/6 25/57/6 30/55/6
f 3/4/2 5/6/2 27/51/2 26/48/2
f 19/34/3 22/33/3 35/54/3 31/58/3
f 7/8/4 9/10/4 29/56/4 28/50/4
f 21/59/8 24/60/8 20/61/8 23/62/8 19/63/8 22/64/8
f 35/65/7 31/66/7 36/67/7 32/68/7 34/69/7 33/70/7
f 46/71/8 39/72/8 38/73/8 37/74/8 47/75/8 45/76/8
f 47/75/8 37/74/8 42/77/8 41/78/8 40/79/8 39/72/8 46/71/8 43/80/8 44/81/8 48/82/8
f 14/14/3 18/35/3 47/83/3 48/15/3
f 15/30/1 16/13/1 44/16/1 43/84/1
f 10/9/4 8/7/4 40/85/4 41/86/4
f 18/28/4 13/27/4 45/87/4 47/88/4
f 2/19/6 12/17/6 42/89/6 37/90/6
f 13/27/5 17/29/5 46/91/5 45/87/5
f 4/3/1 2/2/1 37/92/1 38/11/1
f 8/7/3 6/5/3 39/12/3 40/85/3
f 17/29/6 15/30/6 43/84/6 46/91/6
f 12/17/5 10/9/5 41/86/5 42/89/5
f 14/14/9 18/28/9 13/27/9 46/91/9 17/29/9 15/30/9 16/13/9
f 46/93/8 45/94/8 47/95/8 48/96/8 44/97/8 43/98/8
