# Blender v3.1.2 OBJ File: 'running.blend'
# www.blender.org
mtllib running.mtl
o 立方体
v 1.341216 -0.188922 3.880371
v 1.341216 -0.096767 3.880371
v 1.341216 -0.188922 -3.880371
v 1.341216 0.188922 -3.880371
v 0.000000 -0.188922 -3.880371
v 0.000000 0.188922 -3.880371
v 0.000000 -0.188922 3.880371
v 0.000000 -0.096767 3.880371
v 0.000000 0.188922 -4.075541
v 1.341216 0.188922 -4.075541
v 1.341216 -0.188922 -4.075541
v 0.000000 -0.188922 -4.075541
v 1.698757 0.188922 -3.880371
v 1.698757 -0.188922 -3.880371
v 1.698757 0.188922 -4.075541
v 1.698757 -0.188922 -4.075541
v 1.341216 3.609617 -2.773452
v 1.341216 3.609617 -2.968622
v 1.698757 3.609617 -2.773452
v 1.698757 3.609617 -2.968622
v 1.341216 0.188922 3.878128
v 1.341216 -0.188922 3.878128
v 1.698757 0.188922 3.878128
v 1.698757 -0.188922 3.878128
v 1.341216 3.836737 -2.773452
v 1.341216 3.836737 -2.968622
v 1.698757 3.836737 -2.773452
v 1.698757 3.836737 -2.968622
v 0.093291 3.609617 -2.773452
v 0.093291 3.609617 -2.968622
v 0.093291 3.836737 -2.773452
v 0.093291 3.836737 -2.968622
v -1.341216 -0.188922 3.880371
v -1.341216 -0.096767 3.880371
v -1.341216 -0.188922 -3.880371
v -1.341216 0.188922 -3.880371
v -1.341216 0.188922 -4.075541
v -1.341216 -0.188922 -4.075541
v -1.698757 0.188922 -3.880371
v -1.698757 -0.188922 -3.880371
v -1.698757 0.188922 -4.075541
v -1.698757 -0.188922 -4.075541
v -1.341216 3.609617 -2.773452
v -1.341216 3.609617 -2.968622
v -1.698757 3.609617 -2.773452
v -1.698757 3.609617 -2.968622
v -1.341216 0.188922 3.878128
v -1.341216 -0.188922 3.878128
v -1.698757 0.188922 3.878128
v -1.698757 -0.188922 3.878128
v -1.341216 3.836737 -2.773452
v -1.341216 3.836737 -2.968622
v -1.698757 3.836737 -2.773452
v -1.698757 3.836737 -2.968622
v -0.093291 3.609617 -2.773452
v -0.093291 3.609617 -2.968622
v -0.093291 3.836737 -2.773452
v -0.093291 3.836737 -2.968622
v 0.093291 4.125166 -2.675597
v 0.093291 4.266668 -2.810016
v -0.093291 4.125166 -2.675597
v -0.093291 4.266668 -2.810016
v 1.341216 3.609617 1.920771
v 1.698757 3.609617 1.920771
v 1.341216 3.836737 1.920771
v 1.698757 3.836737 1.920771
v -1.341216 3.609617 1.920771
v -1.698757 3.609617 1.920771
v -1.341216 3.836737 1.920771
v -1.698757 3.836737 1.920771
v 0.093291 4.125166 -2.675597
v 0.093291 4.266668 -2.810016
v -0.093291 4.125166 -2.675597
v -0.093291 4.266668 -2.810016
v 0.093291 4.125166 -2.675597
v 0.093291 4.266668 -2.810016
v -0.093291 4.125166 -2.675597
v -0.093291 4.266668 -2.810016
v 0.788406 3.900553 -2.223361
v 0.788406 4.729834 -3.011125
v -0.788406 3.900553 -2.223361
v -0.788406 4.729834 -3.011125
v 0.788406 3.959508 -2.161299
v 0.788406 4.788789 -2.949063
v -0.788406 3.959508 -2.161299
v -0.788406 4.788789 -2.949063
v 0.000000 0.188922 -3.880371
v 1.341216 0.188922 -3.880371
v 0.000000 0.188922 -4.075541
v 1.341216 0.188922 -4.075541
v -1.341216 0.188922 -3.880371
v -1.341216 0.188922 -4.075541
v 0.000000 0.188922 -4.301219
v 1.341216 0.188922 -4.301219
v 1.341216 -0.188922 -4.301219
v 0.000000 -0.188922 -4.301219
v 1.698757 0.188922 -4.301219
v 1.698757 -0.188922 -4.301219
v -1.341216 0.188922 -4.301219
v -1.341216 -0.188922 -4.301219
v -1.698757 0.188922 -4.301219
v -1.698757 -0.188922 -4.301219
v 0.000000 0.451769 -4.075541
v 1.341216 0.451769 -4.075541
v -1.341216 0.451769 -4.075541
v -1.341216 0.451769 -4.301219
v 1.698757 0.451769 -4.075541
v -1.698757 0.451769 -4.075541
v 0.000000 0.451769 -4.301219
v 1.341216 0.451769 -4.301219
v 1.698757 0.451769 -4.301219
v -1.698757 0.451769 -4.301219
vt 0.259435 0.527122
vt 0.259435 0.527122
vt 0.259435 0.527122
vt 0.259435 0.527122
vt 0.959397 0.500144
vt 0.935046 0.500144
vt 0.953458 0.000000
vt 0.959397 0.000000
vt 0.628348 0.500144
vt 0.541913 0.500144
vt 0.541913 0.000000
vt 0.628348 0.000000
vt 0.724739 0.700137
vt 0.718804 0.700137
vt 0.718804 0.613702
vt 0.724739 0.613702
vt 0.910696 0.500474
vt 0.824261 0.500474
vt 0.824261 0.000000
vt 0.910696 0.000000
vt 0.714783 0.512722
vt 0.737825 0.512722
vt 0.737825 0.527266
vt 0.714783 0.527266
vt 0.541913 0.512722
vt 0.518871 0.512722
vt 0.518871 0.500144
vt 0.628348 0.512722
vt 0.024350 0.027122
vt 0.000000 0.027122
vt 0.000000 0.014544
vt 0.024350 0.014544
vt 0.667059 0.527266
vt 0.679026 0.531139
vt 0.679026 0.762842
vt 0.667059 0.758969
vt 0.959397 0.500000
vt 0.983747 0.500000
vt 0.983747 1.000000
vt 0.959397 1.000000
vt 0.628348 0.527266
vt 0.000000 0.751396
vt 0.023042 0.751396
vt 0.023042 0.766007
vt 0.000000 0.766007
vt 0.518871 0.527266
vt 0.541913 0.527266
vt 0.541913 0.749988
vt 0.518871 0.749988
vt 0.244799 0.085880
vt 0.244799 0.098458
vt 0.000000 0.527122
vt 0.023042 0.527122
vt 0.439894 0.653077
vt 0.439894 0.628740
vt 0.462936 0.628740
vt 0.462936 0.653077
vt 0.024350 0.527122
vt 0.000000 0.527122
vt 0.518871 0.000144
vt 0.541913 0.000144
vt 0.933738 0.999909
vt 0.910696 0.999909
vt 0.910696 0.500144
vt 0.933738 0.500144
vt 0.818249 0.815425
vt 0.818249 0.802853
vt 0.841290 0.802853
vt 0.841290 0.815425
vt 0.259435 0.085880
vt 0.259435 0.098458
vt 0.579592 0.527266
vt 0.594229 0.527266
vt 0.594229 0.829788
vt 0.579592 0.829788
vt 0.737825 0.815425
vt 0.737825 0.802853
vt 0.412450 0.628740
vt 0.424808 0.631086
vt 0.422078 0.645466
vt 0.409721 0.643120
vt 0.693655 0.700137
vt 0.679026 0.700137
vt 0.679026 0.619714
vt 0.693655 0.619714
vt 0.706232 0.700137
vt 0.706232 0.619714
vt 0.103465 0.751396
vt 0.103465 0.766007
vt 0.259435 0.527122
vt 0.259435 0.527122
vt 0.935046 0.000000
vt 0.935046 0.500144
vt 0.929107 0.500144
vt 0.910696 0.000000
vt 0.714783 0.000000
vt 0.714783 0.500144
vt 0.724739 0.527266
vt 0.718804 0.527266
vt 0.737825 0.500474
vt 0.737825 0.000000
vt 0.594229 0.746221
vt 0.594229 0.723179
vt 0.611158 0.723179
vt 0.611158 0.746221
vt 0.737825 0.500144
vt 0.283786 0.500000
vt 0.283786 0.512578
vt 0.259435 0.512578
vt 0.259435 0.500000
vt 0.667059 0.527266
vt 0.667059 0.758969
vt 0.655092 0.762842
vt 0.655092 0.531139
vt 0.959397 0.500000
vt 0.959397 0.000000
vt 0.983747 0.000000
vt 0.983747 0.500000
vt 0.541913 0.527266
vt 0.218954 0.751396
vt 0.218954 0.766007
vt 0.195912 0.766007
vt 0.195912 0.751396
vt 0.564955 0.527266
vt 0.564955 0.749988
vt 0.541913 0.749988
vt 0.541913 0.527266
vt 0.504234 0.428664
vt 0.504234 0.441242
vt 0.218954 0.527122
vt 0.195912 0.527122
vt 0.485978 0.653077
vt 0.462936 0.653077
vt 0.462936 0.628740
vt 0.485978 0.628740
vt 0.259435 0.000000
vt 0.283786 0.000000
vt 0.714783 0.000144
vt 0.737825 0.000144
vt 0.935046 0.999909
vt 0.935046 0.500145
vt 0.958088 0.500145
vt 0.958088 0.999909
vt 0.241996 0.842073
vt 0.218954 0.842073
vt 0.218954 0.829501
vt 0.241996 0.829501
vt 0.518871 0.428664
vt 0.518871 0.441242
vt 0.218954 0.527122
vt 0.241996 0.527122
vt 0.322420 0.829501
vt 0.322420 0.842073
vt 0.427537 0.672248
vt 0.424808 0.657867
vt 0.437165 0.655522
vt 0.439894 0.669902
vt 0.693655 0.527266
vt 0.693655 0.607689
vt 0.679026 0.607689
vt 0.679026 0.527266
vt 0.706232 0.527266
vt 0.706232 0.607689
vt 0.115489 0.766007
vt 0.115489 0.751396
vt 0.625696 0.651927
vt 0.625696 0.670854
vt 0.637720 0.670854
vt 0.637720 0.651927
vt 0.259435 0.527122
vt 0.259435 0.527122
vt 0.259435 0.527122
vt 0.259435 0.527122
vt 0.497011 0.628740
vt 0.497011 0.656775
vt 0.509036 0.656775
vt 0.509036 0.628740
vt 0.414596 0.672247
vt 0.424808 0.664903
vt 0.439894 0.636084
vt 0.429683 0.628740
vt 0.654953 0.628885
vt 0.654953 0.651927
vt 0.640324 0.651927
vt 0.640324 0.628885
vt 0.640324 0.651927
vt 0.625695 0.651927
vt 0.625695 0.628885
vt 0.640324 0.628885
vt 0.579592 0.829788
vt 0.564955 0.829788
vt 0.564955 0.527266
vt 0.579592 0.527266
vt 0.363637 0.527122
vt 0.386679 0.527122
vt 0.386679 0.829643
vt 0.363637 0.829643
vt 0.386679 0.527122
vt 0.409721 0.527122
vt 0.409721 0.829643
vt 0.386679 0.829643
vt 0.259435 0.400979
vt 0.244799 0.400979
vt 0.504234 0.126143
vt 0.518871 0.126143
vt 0.818249 0.500474
vt 0.841290 0.500474
vt 0.259435 0.527122
vt 0.259435 0.527122
vt 0.259435 0.527122
vt 0.259435 0.527122
vt 0.259435 0.527122
vt 0.259435 0.527122
vt 0.625695 0.584088
vt 0.655092 0.628885
vt 0.655092 0.527266
vt 0.625695 0.572063
vt 0.259435 0.527122
vt 0.259435 0.527122
vt 0.724740 0.628885
vt 0.728768 0.628885
vt 0.728768 0.527266
vt 0.724740 0.527266
vt 0.487297 0.571919
vt 0.516872 0.527122
vt 0.464489 0.527122
vt 0.478359 0.571919
vt 0.487297 0.583943
vt 0.516872 0.628740
vt 0.478359 0.583943
vt 0.464489 0.628740
vt 0.413721 0.628740
vt 0.464489 0.628740
vt 0.464489 0.527122
vt 0.413721 0.527122
vt 0.485978 0.702453
vt 0.491495 0.702453
vt 0.491495 0.628740
vt 0.485978 0.628740
vt 0.409721 0.628740
vt 0.409721 0.527122
vt 0.491495 0.702453
vt 0.497011 0.702453
vt 0.497011 0.628740
vt 0.491495 0.628740
vt 0.718804 0.613702
vt 0.718804 0.700137
vt 0.706232 0.700137
vt 0.706232 0.613702
vt 0.706232 0.527266
vt 0.718804 0.527266
vt 0.259435 0.527122
vt 0.259435 0.527122
vt 0.259435 0.527122
vt 0.259435 0.527122
vt 0.259435 0.527122
vt 0.259435 0.527122
vt 0.322419 0.636599
vt 0.346727 0.636599
vt 0.346727 0.723034
vt 0.322419 0.723034
vt 0.346727 0.746076
vt 0.322419 0.746076
vt 0.322419 0.550164
vt 0.346727 0.550164
vt 0.322419 0.527122
vt 0.346727 0.527122
vt 0.283786 0.527122
vt 0.259435 0.527122
vt 0.363637 0.550164
vt 0.363637 0.636599
vt 0.363637 0.723034
vt 0.300725 0.512578
vt 0.300725 0.527122
vt 0.518871 0.527266
vt 0.000000 0.000000
vt 0.024350 0.000000
vt 0.625696 0.527266
vt 0.625696 0.550308
vt 0.611158 0.550308
vt 0.611158 0.527266
vt 0.625696 0.636744
vt 0.625696 0.723179
vt 0.611158 0.723179
vt 0.611158 0.636744
vt 0.625696 0.746221
vt 0.611158 0.746221
vt 0.041290 0.000000
vt 0.041290 0.014544
vt 0.594229 0.636743
vt 0.594229 0.550308
vt 0.611158 0.550308
vt 0.611158 0.636743
vt 0.363637 0.527122
vt 0.594229 0.527266
vt 0.611158 0.527266
vt 0.363637 0.746076
vn 0.0000 0.0000 1.0000
vn 1.0000 0.0000 0.0000
vn 0.0000 -1.0000 0.0000
vn 0.0000 0.9993 0.0368
vn -1.0000 0.0000 0.0000
vn 0.0000 0.0000 -1.0000
vn 0.0000 -0.3079 0.9514
vn 0.0000 0.3079 -0.9514
vn 0.0000 1.0000 0.0000
vn 0.0000 -0.3213 0.9470
vn 0.0000 0.3461 -0.9382
vn 0.0000 -0.3983 -0.9173
vn 0.0000 -0.7250 0.6887
vn -0.2418 -0.6683 -0.7035
vn 0.0000 -0.8956 -0.4448
vn 0.2418 -0.6683 -0.7035
vn 0.0000 0.6887 0.7250
vn 0.0000 0.7250 -0.6887
usemtl マテリアル
s off
f 36/1/1 6/2/1 87/3/1 91/4/1
f 3/5/2 4/6/2 2/7/2 1/8/2
f 5/9/3 3/10/3 1/11/3 7/12/3
f 1/13/1 2/14/1 8/15/1 7/16/1
f 4/17/4 6/18/4 8/19/4 2/20/4
f 38/21/3 42/22/3 102/23/3 100/24/3
f 3/10/3 11/25/3 16/26/3 14/27/3
f 3/10/3 5/9/3 12/28/3 11/25/3
f 13/29/2 14/30/2 16/31/2 15/32/2
f 10/33/5 4/34/5 17/35/5 18/36/5
f 4/37/5 3/38/5 22/39/5 21/40/5
f 12/28/3 38/21/3 100/24/3 96/41/3
f 20/42/6 18/43/6 26/44/6 28/45/6
f 4/46/7 13/47/7 19/48/7 17/49/7
f 13/29/2 15/32/2 20/50/2 19/51/2
f 15/52/8 10/53/8 18/43/8 20/42/8
f 21/54/1 22/55/1 24/56/1 23/57/1
f 14/30/2 13/29/2 23/58/2 24/59/2
f 3/10/3 14/27/3 24/60/3 22/61/3
f 13/62/9 4/63/9 21/64/9 23/65/9
f 26/66/9 25/67/9 27/68/9 28/69/9
f 19/51/2 20/50/2 28/70/2 27/71/2
f 25/72/5 17/73/5 63/74/5 65/75/5
f 25/67/9 26/66/9 32/76/9 31/77/9
f 30/78/5 29/79/5 31/80/5 32/81/5
f 17/82/1 25/83/1 31/84/1 29/85/1
f 18/86/3 17/82/3 29/85/3 30/87/3
f 26/44/6 18/43/6 30/88/6 32/89/6
f 37/90/1 36/1/1 91/4/1 92/91/1
f 35/92/5 33/93/5 34/94/5 36/95/5
f 5/9/3 7/12/3 33/96/3 35/97/3
f 33/98/1 7/16/1 8/15/1 34/99/1
f 36/100/4 34/101/4 8/19/4 6/18/4
f 41/102/1 37/103/1 105/104/1 108/105/1
f 35/97/3 40/106/3 42/22/3 38/21/3
f 35/97/3 38/21/3 12/28/3 5/9/3
f 39/107/5 41/108/5 42/109/5 40/110/5
f 37/111/2 44/112/2 43/113/2 36/114/2
f 36/115/2 47/116/2 48/117/2 35/118/2
f 11/25/3 12/28/3 96/41/3 95/119/3
f 46/120/6 54/121/6 52/122/6 44/123/6
f 36/124/7 43/125/7 45/126/7 39/127/7
f 39/107/5 45/128/5 46/129/5 41/108/5
f 41/130/8 46/120/8 44/123/8 37/131/8
f 47/132/1 49/133/1 50/134/1 48/135/1
f 40/110/5 50/136/5 49/137/5 39/107/5
f 35/97/3 48/138/3 50/139/3 40/106/3
f 39/140/9 49/141/9 47/142/9 36/143/9
f 52/144/9 54/145/9 53/146/9 51/147/9
f 45/128/5 53/148/5 54/149/5 46/129/5
f 51/147/9 53/146/9 70/150/9 69/151/9
f 51/147/9 57/152/9 58/153/9 52/144/9
f 56/154/2 58/155/2 57/156/2 55/157/2
f 43/158/1 55/159/1 57/160/1 51/161/1
f 44/162/3 56/163/3 55/159/3 43/158/3
f 52/122/6 58/164/6 56/165/6 44/123/6
f 31/166/10 59/167/10 61/168/10 57/169/10
f 30/88/6 56/165/6 58/164/6 32/89/6
f 56/163/3 30/87/3 29/85/3 55/159/3
f 55/159/1 29/85/1 31/84/1 57/160/1
f 59/170/1 61/171/1 73/172/1 71/173/1
f 58/174/11 62/175/11 60/176/11 32/177/11
f 32/81/2 60/178/2 59/179/2 31/80/2
f 57/156/5 61/180/5 62/181/5 58/155/5
f 63/182/1 64/183/1 66/184/1 65/185/1
f 67/186/1 69/187/1 70/188/1 68/189/1
f 43/190/2 51/191/2 69/192/2 67/193/2
f 17/194/3 19/195/3 64/196/3 63/197/3
f 45/198/3 43/199/3 67/200/3 68/201/3
f 19/51/2 27/71/2 66/202/2 64/203/2
f 53/148/5 45/128/5 68/204/5 70/205/5
f 27/68/9 25/67/9 65/206/9 66/207/9
f 71/173/1 73/172/1 77/208/1 75/209/1
f 60/210/1 59/170/1 71/173/1 72/211/1
f 62/212/1 60/210/1 72/211/1 74/213/1
f 61/171/1 62/212/1 74/213/1 73/172/1
f 78/214/12 82/215/12 80/216/12 76/217/12
f 72/211/1 71/173/1 75/209/1 76/218/1
f 74/213/1 72/211/1 76/218/1 78/219/1
f 73/172/1 74/213/1 78/219/1 77/208/1
f 79/220/13 83/221/13 85/222/13 81/223/13
f 77/224/14 81/225/14 82/226/14 78/227/14
f 75/228/15 79/229/15 81/225/15 77/224/15
f 76/230/16 80/231/16 79/229/16 75/228/16
f 86/232/17 85/233/17 83/234/17 84/235/17
f 80/236/2 84/237/2 83/238/2 79/239/2
f 82/240/18 86/232/18 84/235/18 80/241/18
f 81/242/5 85/243/5 86/244/5 82/245/5
f 87/246/9 88/247/9 90/248/9 89/249/9
f 87/246/9 89/249/9 92/250/9 91/251/9
f 6/2/1 4/252/1 88/253/1 87/3/1
f 4/252/1 10/254/1 90/255/1 88/253/1
f 9/256/1 37/90/1 92/91/1 89/257/1
f 10/254/1 9/256/1 89/257/1 90/255/1
f 96/258/6 93/259/6 94/260/6 95/261/6
f 95/261/6 94/260/6 97/262/6 98/263/6
f 96/258/6 100/264/6 99/265/6 93/259/6
f 100/264/6 102/266/6 101/267/6 99/265/6
f 42/109/5 41/108/5 101/268/5 102/269/5
f 93/259/6 99/265/6 106/270/6 109/271/6
f 94/260/6 93/259/6 109/271/6 110/272/6
f 101/268/5 41/108/5 108/273/5 112/274/5
f 16/26/3 11/25/3 95/119/3 98/275/3
f 15/32/2 16/31/2 98/276/2 97/277/2
f 108/278/9 105/279/9 106/280/9 112/281/9
f 103/282/9 104/283/9 110/284/9 109/285/9
f 104/283/9 107/286/9 111/287/9 110/284/9
f 105/279/9 103/282/9 109/285/9 106/280/9
f 15/32/2 97/277/2 111/288/2 107/289/2
f 9/290/1 10/291/1 104/292/1 103/293/1
f 99/265/6 101/267/6 112/294/6 106/270/6
f 10/291/1 15/295/1 107/296/1 104/292/1
f 37/103/1 9/290/1 103/293/1 105/104/1
f 97/262/6 94/260/6 110/272/6 111/297/6
